<mxfile host="65bd71144e">
    <diagram id="1ZvNzdT-k9rOkwbIajj3" name="第 1 页">
        <mxGraphModel dx="3259" dy="2222" grid="1" gridSize="10" guides="1" tooltips="1" connect="1" arrows="1" fold="1" page="1" pageScale="1" pageWidth="827" pageHeight="1169" math="0" shadow="0">
            <root>
                <mxCell id="0"/>
                <mxCell id="1" parent="0"/>
                <mxCell id="19" style="edgeStyle=none;html=1;" edge="1" parent="1" source="2">
                    <mxGeometry relative="1" as="geometry">
                        <mxPoint x="250" y="315" as="targetPoint"/>
                    </mxGeometry>
                </mxCell>
                <mxCell id="9" style="edgeStyle=none;html=1;" edge="1" parent="1" source="3" target="4">
                    <mxGeometry relative="1" as="geometry"/>
                </mxCell>
                <mxCell id="40" value="" style="edgeStyle=none;html=1;" edge="1" parent="1" source="3" target="39">
                    <mxGeometry relative="1" as="geometry"/>
                </mxCell>
                <mxCell id="3" value="作品" style="rounded=0;whiteSpace=wrap;html=1;" vertex="1" parent="1">
                    <mxGeometry x="40" y="150" width="120" height="60" as="geometry"/>
                </mxCell>
                <mxCell id="10" style="edgeStyle=none;html=1;" edge="1" parent="1" source="4" target="5">
                    <mxGeometry relative="1" as="geometry"/>
                </mxCell>
                <mxCell id="11" style="edgeStyle=none;html=1;entryX=0;entryY=0.5;entryDx=0;entryDy=0;" edge="1" parent="1" source="4" target="6">
                    <mxGeometry relative="1" as="geometry"/>
                </mxCell>
                <mxCell id="91" style="edgeStyle=none;html=1;entryX=0;entryY=0.5;entryDx=0;entryDy=0;" edge="1" parent="1" source="5" target="77">
                    <mxGeometry relative="1" as="geometry"/>
                </mxCell>
                <mxCell id="92" style="edgeStyle=none;html=1;" edge="1" parent="1" source="5" target="90">
                    <mxGeometry relative="1" as="geometry"/>
                </mxCell>
                <mxCell id="5" value="文件夹A" style="rounded=0;whiteSpace=wrap;html=1;" vertex="1" parent="1">
                    <mxGeometry x="490" y="70" width="120" height="60" as="geometry"/>
                </mxCell>
                <mxCell id="15" style="edgeStyle=none;html=1;entryX=0;entryY=0.5;entryDx=0;entryDy=0;" edge="1" parent="1" target="13">
                    <mxGeometry relative="1" as="geometry">
                        <mxPoint x="550" y="336.9230769230769" as="sourcePoint"/>
                    </mxGeometry>
                </mxCell>
                <mxCell id="16" style="edgeStyle=none;html=1;entryX=0.083;entryY=0.5;entryDx=0;entryDy=0;entryPerimeter=0;" edge="1" parent="1" target="14">
                    <mxGeometry relative="1" as="geometry">
                        <mxPoint x="550" y="381.43469562732207" as="sourcePoint"/>
                    </mxGeometry>
                </mxCell>
                <mxCell id="18" style="edgeStyle=none;html=1;" edge="1" parent="1" target="12">
                    <mxGeometry relative="1" as="geometry">
                        <mxPoint x="370" y="340" as="sourcePoint"/>
                    </mxGeometry>
                </mxCell>
                <mxCell id="27" style="edgeStyle=none;html=1;" edge="1" parent="1" source="21" target="22">
                    <mxGeometry relative="1" as="geometry"/>
                </mxCell>
                <mxCell id="35" style="edgeStyle=none;html=1;entryX=0.5;entryY=1;entryDx=0;entryDy=0;" edge="1" parent="1" source="21" target="34">
                    <mxGeometry relative="1" as="geometry"/>
                </mxCell>
                <mxCell id="21" value="125户型" style="rounded=0;whiteSpace=wrap;html=1;" vertex="1" parent="1">
                    <mxGeometry x="20" y="610" width="120" height="60" as="geometry"/>
                </mxCell>
                <mxCell id="71" style="edgeStyle=none;html=1;entryX=0;entryY=0.5;entryDx=0;entryDy=0;" edge="1" parent="1" source="22" target="70">
                    <mxGeometry relative="1" as="geometry"/>
                </mxCell>
                <mxCell id="47" style="edgeStyle=none;html=1;entryX=0;entryY=0.75;entryDx=0;entryDy=0;" edge="1" parent="1" source="23" target="41">
                    <mxGeometry relative="1" as="geometry"/>
                </mxCell>
                <mxCell id="50" style="edgeStyle=none;html=1;" edge="1" parent="1" source="23">
                    <mxGeometry relative="1" as="geometry">
                        <mxPoint x="80" y="900" as="targetPoint"/>
                    </mxGeometry>
                </mxCell>
                <mxCell id="53" style="edgeStyle=none;html=1;entryX=0;entryY=0.5;entryDx=0;entryDy=0;" edge="1" parent="1" source="23" target="42">
                    <mxGeometry relative="1" as="geometry"/>
                </mxCell>
                <mxCell id="23" value="户型鉴赏" style="rounded=0;whiteSpace=wrap;html=1;" vertex="1" parent="1">
                    <mxGeometry x="20" y="980" width="120" height="60" as="geometry"/>
                </mxCell>
                <mxCell id="34" value="小地图" style="rounded=0;whiteSpace=wrap;html=1;" vertex="1" parent="1">
                    <mxGeometry x="20" y="490" width="120" height="60" as="geometry"/>
                </mxCell>
                <mxCell id="39" value="文件A" style="whiteSpace=wrap;html=1;rounded=0;" vertex="1" parent="1">
                    <mxGeometry x="40" y="20" width="120" height="60" as="geometry"/>
                </mxCell>
                <mxCell id="45" style="edgeStyle=none;html=1;entryX=0;entryY=0.5;entryDx=0;entryDy=0;" edge="1" parent="1" source="41" target="43">
                    <mxGeometry relative="1" as="geometry"/>
                </mxCell>
                <mxCell id="46" style="edgeStyle=none;html=1;entryX=0;entryY=0.5;entryDx=0;entryDy=0;" edge="1" parent="1" source="41" target="44">
                    <mxGeometry relative="1" as="geometry"/>
                </mxCell>
                <mxCell id="41" value="图层A" style="rounded=0;whiteSpace=wrap;html=1;" vertex="1" parent="1">
                    <mxGeometry x="210" y="900" width="120" height="60" as="geometry"/>
                </mxCell>
                <mxCell id="54" style="edgeStyle=none;html=1;" edge="1" parent="1" source="42" target="48">
                    <mxGeometry relative="1" as="geometry"/>
                </mxCell>
                <mxCell id="42" value="图层B" style="rounded=0;whiteSpace=wrap;html=1;" vertex="1" parent="1">
                    <mxGeometry x="210" y="1060" width="120" height="60" as="geometry"/>
                </mxCell>
                <mxCell id="51" value="页面底图" style="rounded=0;whiteSpace=wrap;html=1;" vertex="1" parent="1">
                    <mxGeometry x="20" y="840" width="120" height="60" as="geometry"/>
                </mxCell>
                <mxCell id="82" style="edgeStyle=none;html=1;" edge="1" parent="1" source="55" target="81">
                    <mxGeometry relative="1" as="geometry"/>
                </mxCell>
                <mxCell id="65" style="edgeStyle=none;html=1;" edge="1" parent="1" source="64" target="55">
                    <mxGeometry relative="1" as="geometry"/>
                </mxCell>
                <mxCell id="67" style="edgeStyle=none;html=1;entryX=0.5;entryY=1;entryDx=0;entryDy=0;" edge="1" parent="1" source="64" target="66">
                    <mxGeometry relative="1" as="geometry"/>
                </mxCell>
                <mxCell id="64" value="125户型" style="rounded=0;whiteSpace=wrap;html=1;" vertex="1" parent="1">
                    <mxGeometry x="20" y="1370" width="120" height="60" as="geometry"/>
                </mxCell>
                <mxCell id="66" value="小地图" style="rounded=0;whiteSpace=wrap;html=1;" vertex="1" parent="1">
                    <mxGeometry x="20" y="1250" width="120" height="60" as="geometry"/>
                </mxCell>
                <mxCell id="72" style="edgeStyle=none;html=1;entryX=0.017;entryY=0.65;entryDx=0;entryDy=0;entryPerimeter=0;" edge="1" parent="1" source="70" target="24">
                    <mxGeometry relative="1" as="geometry"/>
                </mxCell>
                <mxCell id="73" style="edgeStyle=none;html=1;entryX=0;entryY=0.5;entryDx=0;entryDy=0;" edge="1" parent="1" source="70" target="25">
                    <mxGeometry relative="1" as="geometry"/>
                </mxCell>
                <mxCell id="74" style="edgeStyle=none;html=1;entryX=0;entryY=0.5;entryDx=0;entryDy=0;" edge="1" parent="1" source="70" target="26">
                    <mxGeometry relative="1" as="geometry"/>
                </mxCell>
                <mxCell id="75" style="edgeStyle=none;html=1;" edge="1" parent="1" source="70" target="31">
                    <mxGeometry relative="1" as="geometry"/>
                </mxCell>
                <mxCell id="76" style="edgeStyle=none;html=1;entryX=0;entryY=0.25;entryDx=0;entryDy=0;" edge="1" parent="1" source="70" target="37">
                    <mxGeometry relative="1" as="geometry"/>
                </mxCell>
                <mxCell id="70" value="文件夹" style="rounded=0;whiteSpace=wrap;html=1;" vertex="1" parent="1">
                    <mxGeometry x="480" y="610" width="120" height="60" as="geometry"/>
                </mxCell>
                <mxCell id="101" style="edgeStyle=none;html=1;entryX=0;entryY=0.5;entryDx=0;entryDy=0;" edge="1" parent="1" source="85" target="21">
                    <mxGeometry relative="1" as="geometry"/>
                </mxCell>
                <mxCell id="102" style="edgeStyle=none;html=1;" edge="1" parent="1" source="86" target="23">
                    <mxGeometry relative="1" as="geometry"/>
                </mxCell>
                <mxCell id="86" value="平面模块" style="rounded=0;whiteSpace=wrap;html=1;" vertex="1" parent="1">
                    <mxGeometry x="-270" y="980" width="120" height="60" as="geometry"/>
                </mxCell>
                <mxCell id="103" style="edgeStyle=none;html=1;" edge="1" parent="1" source="87" target="64">
                    <mxGeometry relative="1" as="geometry"/>
                </mxCell>
                <mxCell id="87" value="3d模型模块" style="rounded=0;whiteSpace=wrap;html=1;" vertex="1" parent="1">
                    <mxGeometry x="-260" y="1370" width="120" height="60" as="geometry"/>
                </mxCell>
                <mxCell id="88" value="asset" style="swimlane;" vertex="1" parent="1">
                    <mxGeometry x="-30" y="-70" width="420" height="1580" as="geometry"/>
                </mxCell>
                <mxCell id="55" value="上叠" style="rounded=0;whiteSpace=wrap;html=1;" vertex="1" parent="88">
                    <mxGeometry x="240" y="1440" width="120" height="60" as="geometry"/>
                </mxCell>
                <mxCell id="4" value="资源" style="rounded=0;whiteSpace=wrap;html=1;" vertex="1" parent="88">
                    <mxGeometry x="260" y="220" width="120" height="60" as="geometry"/>
                </mxCell>
                <mxCell id="22" value="厨房" style="rounded=0;whiteSpace=wrap;html=1;" vertex="1" parent="88">
                    <mxGeometry x="250" y="680" width="120" height="60" as="geometry"/>
                </mxCell>
                <mxCell id="89" value="filesystem" style="swimlane;" vertex="1" parent="1">
                    <mxGeometry x="460" y="-70" width="420" height="1580" as="geometry"/>
                </mxCell>
                <mxCell id="81" value="文件夹" style="rounded=0;whiteSpace=wrap;html=1;" vertex="1" parent="89">
                    <mxGeometry x="40" y="1440" width="120" height="60" as="geometry"/>
                </mxCell>
                <mxCell id="56" value="模型" style="rounded=0;whiteSpace=wrap;html=1;" vertex="1" parent="89">
                    <mxGeometry x="240" y="1330" width="120" height="60" as="geometry"/>
                </mxCell>
                <mxCell id="83" style="edgeStyle=none;html=1;entryX=0;entryY=0.75;entryDx=0;entryDy=0;" edge="1" parent="89" source="81" target="56">
                    <mxGeometry relative="1" as="geometry"/>
                </mxCell>
                <mxCell id="57" value="材质" style="rounded=0;whiteSpace=wrap;html=1;" vertex="1" parent="89">
                    <mxGeometry x="240" y="1440" width="120" height="60" as="geometry"/>
                </mxCell>
                <mxCell id="84" style="edgeStyle=none;html=1;entryX=0;entryY=0.5;entryDx=0;entryDy=0;" edge="1" parent="89" source="81" target="57">
                    <mxGeometry relative="1" as="geometry"/>
                </mxCell>
                <mxCell id="24" value="jpg" style="rounded=0;whiteSpace=wrap;html=1;" vertex="1" parent="89">
                    <mxGeometry x="230" y="530" width="120" height="60" as="geometry"/>
                </mxCell>
                <mxCell id="25" value="tile" style="rounded=0;whiteSpace=wrap;html=1;" vertex="1" parent="89">
                    <mxGeometry x="230" y="620" width="120" height="60" as="geometry"/>
                </mxCell>
                <mxCell id="26" value="xml" style="rounded=0;whiteSpace=wrap;html=1;" vertex="1" parent="89">
                    <mxGeometry x="230" y="700" width="120" height="60" as="geometry"/>
                </mxCell>
                <mxCell id="31" value="thumb" style="rounded=0;whiteSpace=wrap;html=1;" vertex="1" parent="89">
                    <mxGeometry x="230" y="790" width="120" height="60" as="geometry"/>
                </mxCell>
                <mxCell id="37" value="项目地标牌" style="rounded=0;whiteSpace=wrap;html=1;" vertex="1" parent="89">
                    <mxGeometry x="230" y="880" width="120" height="60" as="geometry"/>
                </mxCell>
                <mxCell id="43" value="文件夹A" style="rounded=0;whiteSpace=wrap;html=1;" vertex="1" parent="89">
                    <mxGeometry x="30" y="970" width="120" height="60" as="geometry"/>
                </mxCell>
                <mxCell id="44" value="文件夹B" style="rounded=0;whiteSpace=wrap;html=1;" vertex="1" parent="89">
                    <mxGeometry x="30" y="1050" width="120" height="60" as="geometry"/>
                </mxCell>
                <mxCell id="48" value="文件夹A" style="rounded=0;whiteSpace=wrap;html=1;" vertex="1" parent="89">
                    <mxGeometry x="30" y="1130" width="120" height="60" as="geometry"/>
                </mxCell>
                <mxCell id="6" value="文件夹B" style="rounded=0;whiteSpace=wrap;html=1;" vertex="1" parent="89">
                    <mxGeometry x="30" y="280" width="120" height="60" as="geometry"/>
                </mxCell>
                <mxCell id="77" value="文件A" style="rounded=0;whiteSpace=wrap;html=1;" vertex="1" parent="89">
                    <mxGeometry x="200" y="110" width="120" height="60" as="geometry"/>
                </mxCell>
                <mxCell id="90" value="文件B" style="rounded=0;whiteSpace=wrap;html=1;" vertex="1" parent="89">
                    <mxGeometry x="200" y="200" width="120" height="60" as="geometry"/>
                </mxCell>
                <mxCell id="94" style="edgeStyle=none;html=1;entryX=0;entryY=0.5;entryDx=0;entryDy=0;" edge="1" parent="1" source="93" target="3">
                    <mxGeometry relative="1" as="geometry"/>
                </mxCell>
                <mxCell id="93" value="模块" style="rounded=0;whiteSpace=wrap;html=1;" vertex="1" parent="1">
                    <mxGeometry x="-270" y="150" width="120" height="60" as="geometry"/>
                </mxCell>
                <mxCell id="100" value="Vertical Container" style="swimlane;" vertex="1" parent="1">
                    <mxGeometry x="-413" y="-70" width="363" height="1580" as="geometry">
                        <mxRectangle x="-413" y="-70" width="130" height="23" as="alternateBounds"/>
                    </mxGeometry>
                </mxCell>
                <mxCell id="85" value="全景模块" style="rounded=0;whiteSpace=wrap;html=1;" vertex="1" parent="100">
                    <mxGeometry x="143" y="680" width="120" height="60" as="geometry"/>
                </mxCell>
                <mxCell id="104" value="Vertical Container" style="swimlane;" vertex="1" parent="1">
                    <mxGeometry x="-860" y="-80" width="200" height="1600" as="geometry"/>
                </mxCell>
                <mxCell id="105" value="产品" style="rounded=0;whiteSpace=wrap;html=1;" vertex="1" parent="104">
                    <mxGeometry x="33" y="1060" width="120" height="60" as="geometry"/>
                </mxCell>
                <mxCell id="110" value="项目" style="rounded=0;whiteSpace=wrap;html=1;" vertex="1" parent="104">
                    <mxGeometry x="33" y="230" width="120" height="60" as="geometry"/>
                </mxCell>
                <mxCell id="106" style="edgeStyle=none;html=1;" edge="1" parent="1" source="105" target="86">
                    <mxGeometry relative="1" as="geometry"/>
                </mxCell>
                <mxCell id="107" style="edgeStyle=none;html=1;entryX=0;entryY=0.5;entryDx=0;entryDy=0;" edge="1" parent="1" source="105" target="85">
                    <mxGeometry relative="1" as="geometry"/>
                </mxCell>
                <mxCell id="108" style="edgeStyle=none;html=1;entryX=0;entryY=0.5;entryDx=0;entryDy=0;" edge="1" parent="1" source="105" target="87">
                    <mxGeometry relative="1" as="geometry"/>
                </mxCell>
                <mxCell id="111" style="edgeStyle=none;html=1;entryX=0;entryY=0.5;entryDx=0;entryDy=0;" edge="1" parent="1" source="110" target="93">
                    <mxGeometry relative="1" as="geometry"/>
                </mxCell>
                <mxCell id="118" value="option" style="rounded=0;whiteSpace=wrap;html=1;" vertex="1" parent="1">
                    <mxGeometry x="-1240" y="150" width="120" height="60" as="geometry"/>
                </mxCell>
                <mxCell id="119" style="edgeStyle=none;html=1;entryX=1;entryY=0.5;entryDx=0;entryDy=0;" edge="1" parent="1" source="110" target="118">
                    <mxGeometry relative="1" as="geometry"/>
                </mxCell>
                <mxCell id="131" style="edgeStyle=none;html=1;entryX=0;entryY=0.5;entryDx=0;entryDy=0;" edge="1" parent="1" source="120" target="129">
                    <mxGeometry relative="1" as="geometry"/>
                </mxCell>
                <mxCell id="149" style="edgeStyle=none;html=1;" edge="1" parent="1" source="120" target="132">
                    <mxGeometry relative="1" as="geometry">
                        <Array as="points">
                            <mxPoint x="510" y="-570"/>
                            <mxPoint x="570" y="-590"/>
                            <mxPoint x="620" y="-590"/>
                            <mxPoint x="720" y="-590"/>
                            <mxPoint x="800" y="-590"/>
                            <mxPoint x="890" y="-580"/>
                        </Array>
                    </mxGeometry>
                </mxCell>
                <mxCell id="120" value="全景目录" style="rounded=0;whiteSpace=wrap;html=1;" vertex="1" parent="1">
                    <mxGeometry x="270" y="-510" width="120" height="60" as="geometry"/>
                </mxCell>
                <mxCell id="122" style="edgeStyle=none;html=1;" edge="1" parent="1" source="121" target="120">
                    <mxGeometry relative="1" as="geometry"/>
                </mxCell>
                <mxCell id="125" style="edgeStyle=none;html=1;" edge="1" parent="1" source="121" target="123">
                    <mxGeometry relative="1" as="geometry"/>
                </mxCell>
                <mxCell id="126" style="edgeStyle=none;html=1;" edge="1" parent="1" source="121" target="124">
                    <mxGeometry relative="1" as="geometry"/>
                </mxCell>
                <mxCell id="144" style="edgeStyle=none;html=1;entryX=0;entryY=0.5;entryDx=0;entryDy=0;" edge="1" parent="1" source="121" target="143">
                    <mxGeometry relative="1" as="geometry"/>
                </mxCell>
                <mxCell id="121" value="根目录" style="rounded=0;whiteSpace=wrap;html=1;" vertex="1" parent="1">
                    <mxGeometry x="10" y="-330" width="120" height="60" as="geometry"/>
                </mxCell>
                <mxCell id="123" value="平面图目录" style="rounded=0;whiteSpace=wrap;html=1;" vertex="1" parent="1">
                    <mxGeometry x="260" y="-400" width="120" height="60" as="geometry"/>
                </mxCell>
                <mxCell id="124" value="3d户模目录" style="rounded=0;whiteSpace=wrap;html=1;" vertex="1" parent="1">
                    <mxGeometry x="260" y="-190" width="120" height="60" as="geometry"/>
                </mxCell>
                <mxCell id="147" style="edgeStyle=none;html=1;" edge="1" parent="1" source="129" target="146">
                    <mxGeometry relative="1" as="geometry"/>
                </mxCell>
                <mxCell id="129" value="项目目录" style="rounded=0;whiteSpace=wrap;html=1;" vertex="1" parent="1">
                    <mxGeometry x="480" y="-510" width="120" height="60" as="geometry"/>
                </mxCell>
                <mxCell id="135" style="edgeStyle=none;html=1;entryX=0;entryY=0.5;entryDx=0;entryDy=0;" edge="1" parent="1" source="132" target="134">
                    <mxGeometry relative="1" as="geometry"/>
                </mxCell>
                <mxCell id="132" value="资源目录" style="rounded=0;whiteSpace=wrap;html=1;" vertex="1" parent="1">
                    <mxGeometry x="1070" y="-510" width="120" height="60" as="geometry"/>
                </mxCell>
                <mxCell id="137" style="edgeStyle=none;html=1;" edge="1" parent="1" source="134" target="136">
                    <mxGeometry relative="1" as="geometry"/>
                </mxCell>
                <mxCell id="134" value="素材目录" style="rounded=0;whiteSpace=wrap;html=1;" vertex="1" parent="1">
                    <mxGeometry x="1300" y="-510" width="120" height="60" as="geometry"/>
                </mxCell>
                <mxCell id="139" style="edgeStyle=none;html=1;entryX=0;entryY=0.75;entryDx=0;entryDy=0;" edge="1" parent="1" source="136" target="138">
                    <mxGeometry relative="1" as="geometry"/>
                </mxCell>
                <mxCell id="136" value="文件夹" style="rounded=0;whiteSpace=wrap;html=1;" vertex="1" parent="1">
                    <mxGeometry x="1510" y="-510" width="120" height="60" as="geometry"/>
                </mxCell>
                <mxCell id="138" value="文件" style="rounded=0;whiteSpace=wrap;html=1;" vertex="1" parent="1">
                    <mxGeometry x="1710" y="-520" width="120" height="60" as="geometry"/>
                </mxCell>
                <mxCell id="142" style="edgeStyle=none;html=1;" edge="1" parent="1" source="140" target="132">
                    <mxGeometry relative="1" as="geometry"/>
                </mxCell>
                <mxCell id="140" value="模块目录" style="whiteSpace=wrap;html=1;rounded=0;" vertex="1" parent="1">
                    <mxGeometry x="850" y="-510" width="120" height="60" as="geometry"/>
                </mxCell>
                <mxCell id="143" value="序列帧目录" style="rounded=0;whiteSpace=wrap;html=1;" vertex="1" parent="1">
                    <mxGeometry x="260" y="-300" width="120" height="60" as="geometry"/>
                </mxCell>
                <mxCell id="148" style="edgeStyle=none;html=1;" edge="1" parent="1" source="146" target="140">
                    <mxGeometry relative="1" as="geometry"/>
                </mxCell>
                <mxCell id="146" value="产品目录" style="rounded=0;whiteSpace=wrap;html=1;" vertex="1" parent="1">
                    <mxGeometry x="660" y="-510" width="120" height="60" as="geometry"/>
                </mxCell>
            </root>
        </mxGraphModel>
    </diagram>
</mxfile>